<svg width="36" height="44" viewBox="0 0 36 44" fill="none" xmlns="http://www.w3.org/2000/svg">
<ellipse cx="18" cy="35.5" rx="9" ry="4.5" fill="#3D4587" fill-opacity="0.26"/>
<g filter="url(#filter0_d_2006_256)">
<rect x="13" y="9" width="11" height="12" fill="white"/>
<path d="M18 3.5C24.1184 3.5 29 9.22019 29 15.25C29 16.3396 28.6632 17.6877 28.1387 19.1406C27.6106 20.6033 26.8765 22.2136 26.0508 23.8408C24.399 27.0959 22.3604 30.453 20.8076 32.8926C19.4843 34.9716 16.5157 34.9716 15.1924 32.8926C13.6396 30.453 11.601 27.0959 9.94922 23.8408C9.1235 22.2136 8.38941 20.6033 7.86133 19.1406C7.3368 17.6877 7 16.3396 7 15.25C7 9.22019 11.8816 3.5 18 3.5ZM18 10.5C15.7909 10.5 14 12.2909 14 14.5C14 16.7091 15.7909 18.5 18 18.5C20.2091 18.5 22 16.7091 22 14.5C22 12.2909 20.2091 10.5 18 10.5Z" fill="#BF0000" stroke="white"/>
</g>
<defs>
<filter id="filter0_d_2006_256" x="-6" y="-2" width="48" height="48" filterUnits="userSpaceOnUse" color-interpolation-filters="sRGB">
<feFlood flood-opacity="0" result="BackgroundImageFix"/>
<feColorMatrix in="SourceAlpha" type="matrix" values="0 0 0 0 0 0 0 0 0 0 0 0 0 0 0 0 0 0 127 0" result="hardAlpha"/>
<feOffset dy="3"/>
<feGaussianBlur stdDeviation="3"/>
<feComposite in2="hardAlpha" operator="out"/>
<feColorMatrix type="matrix" values="0 0 0 0 0.192157 0 0 0 0 0.211765 0 0 0 0 0.388235 0 0 0 0.08 0"/>
<feBlend mode="normal" in2="BackgroundImageFix" result="effect1_dropShadow_2006_256"/>
<feBlend mode="normal" in="SourceGraphic" in2="effect1_dropShadow_2006_256" result="shape"/>
</filter>
</defs>
</svg>
