<svg width="24" height="24" viewBox="0 0 24 24" fill="none" xmlns="http://www.w3.org/2000/svg">
<path fill-rule="evenodd" clip-rule="evenodd" d="M7.5 6.875C7.5 5.83947 8.33947 5 9.375 5H20.625C21.6605 5 22.5 5.83947 22.5 6.875V16.875C22.5 17.9105 21.6605 18.75 20.625 18.75V19.375C20.625 19.7202 20.3452 20 20 20H18.125C17.7798 20 17.5 19.7202 17.5 19.375V18.75H12.5V19.375C12.5 19.7202 12.2202 20 11.875 20H10C9.65482 20 9.375 19.7202 9.375 19.375V18.75C8.33947 18.75 7.5 17.9105 7.5 16.875V6.875ZM10.072 12.7411C9.63852 12.5549 9.375 12.1184 9.375 11.6466V7.1875C9.375 7.01491 9.51491 6.875 9.6875 6.875H20.3125C20.4851 6.875 20.625 7.01491 20.625 7.1875V11.6466C20.625 12.1184 20.3615 12.5549 19.928 12.7411C18.4159 13.3904 16.7499 13.75 15 13.75C13.2501 13.75 11.5841 13.3904 10.072 12.7411ZM10.3125 17.125C10.9683 17.125 11.5 16.5933 11.5 15.9375C11.5 15.2817 10.9683 14.75 10.3125 14.75C9.65665 14.75 9.12498 15.2817 9.12498 15.9375C9.12498 16.5933 9.65665 17.125 10.3125 17.125ZM20.875 15.9375C20.875 16.5933 20.3433 17.125 19.6875 17.125C19.0316 17.125 18.5 16.5933 18.5 15.9375C18.5 15.2817 19.0316 14.75 19.6875 14.75C20.3433 14.75 20.875 15.2817 20.875 15.9375Z" fill="#313663"/>
<path d="M2 5C1.72386 5 1.5 5.22386 1.5 5.5V11.5C1.5 11.7761 1.72386 12 2 12H2.75V18.5H2.18019C2.07258 18.5 1.97705 18.5689 1.94302 18.6709L1.60969 19.6709C1.55572 19.8328 1.67622 20 1.84686 20H5.15314C5.32378 20 5.44427 19.8328 5.39031 19.6709L5.05698 18.6709C5.02295 18.5689 4.92742 18.5 4.81981 18.5H4.25V12H5C5.27614 12 5.5 11.7761 5.5 11.5V5.5C5.5 5.22386 5.27614 5 5 5H2Z" fill="#313663"/>
</svg>
