<svg width="148" height="36" viewBox="0 0 148 36" fill="none" xmlns="http://www.w3.org/2000/svg">
<path d="M27.0571 15.2303L27.7752 11.5382H21.9601L23.0365 6H19.1596L18.0832 11.5382H12.2681L13.3445 6H9.46704L8.3912 11.5382H2.57554L1.85811 15.2303H7.67318L6.59851 20.7691H0.782853L0.0654297 24.4612H5.88109L4.80407 30H8.68098L9.758 24.4612H15.5737L14.4966 30H18.3741L19.4511 24.4612H25.2662L25.9842 20.7691H20.1686L21.245 15.2303H27.0571ZM16.2887 20.7691H10.4731L11.5501 15.2303H17.3646L16.2887 20.7691Z" fill="#E60000"/>
<path d="M61.0018 28H57.5018L53.3654 20.294H53.1665H49.1495V28H46.0771V7.63636H53.1765C57.8995 7.63636 60.2262 10.2713 60.2262 14.0199C60.2262 16.7543 58.9833 18.8324 56.4876 19.7571L61.0018 28ZM49.1495 10.2713V17.6491H52.8881C55.881 17.6491 57.1339 16.3168 57.1339 14.0199C57.1339 11.7131 55.881 10.2713 52.8484 10.2713H49.1495ZM75.9613 20.2045V21.2585H65.6303C65.7496 24.0824 67.3704 25.7727 70.6218 25.7727C72.2525 25.7727 73.7141 25.2955 74.8477 24.5994V27.2741C73.6843 27.831 72.2326 28.2486 70.5621 28.2486C65.2724 28.2486 62.707 25.1165 62.707 20.5923C62.707 16.2472 65.1431 12.5284 69.6275 12.5284C73.0479 12.5284 75.9613 14.6861 75.9613 20.2045ZM65.6303 19.0312H73.1474C73.1474 16.6946 71.9144 14.9844 69.6076 14.9844C67.1914 14.9844 65.7397 16.8636 65.6303 19.0312ZM79.0138 7.3679H82.2752V10.4702H79.0138V7.3679ZM79.1431 28V12.7273H82.1161V28H79.1431ZM89.7749 28.2983C88.2436 28.2983 86.6527 27.9901 85.549 27.4631V24.8679C86.782 25.5341 88.1243 25.9616 89.5859 25.9616C91.6143 25.9616 92.6186 25.1264 92.6186 23.9332C92.6186 22.581 91.3558 21.9645 90.5405 21.6562L89.1385 21.1392C88.0249 20.7216 85.5291 19.6676 85.5291 16.983C85.5291 14.8949 87.0107 12.5483 91.0277 12.5483C92.0419 12.5483 93.5036 12.6875 94.6271 13.0455V15.5511C93.772 15.1634 92.4098 14.8253 91.2266 14.8253C89.218 14.8253 88.4425 15.7898 88.4425 16.7543C88.4425 18.027 89.7152 18.5639 90.5803 18.9219L92.0021 19.4886C93.4638 20.0753 95.6115 21.0199 95.6115 23.8139C95.6115 26.5582 93.5433 28.2983 89.7749 28.2983ZM111.344 20.2045V21.2585H101.013C101.132 24.0824 102.753 25.7727 106.005 25.7727C107.635 25.7727 109.097 25.2955 110.23 24.5994V27.2741C109.067 27.831 107.615 28.2486 105.945 28.2486C100.655 28.2486 98.0898 25.1165 98.0898 20.5923C98.0898 16.2472 100.526 12.5284 105.01 12.5284C108.431 12.5284 111.344 14.6861 111.344 20.2045ZM101.013 19.0312H108.53C108.53 16.6946 107.297 14.9844 104.99 14.9844C102.574 14.9844 101.123 16.8636 101.013 19.0312ZM121.891 15.0838H118.232V23.108C118.232 24.1023 118.332 25.6534 120.281 25.6534C120.887 25.6534 121.414 25.5043 121.871 25.2159V27.7116C121.235 28.0398 120.4 28.2088 119.485 28.2088C116.661 28.2088 115.259 26.6676 115.259 23.6449V15.0838H112.773L112.783 12.7273H115.259V10.0724L118.232 9.1875V12.7273H121.891V15.0838ZM124.487 7.3679H127.748V10.4702H124.487V7.3679ZM124.616 28V12.7273H127.589V28H124.616ZM137.306 28.2983C133.597 28.2983 130.922 25.3352 130.922 20.3935C130.922 15.4418 133.637 12.5284 137.326 12.5284C140.169 12.5284 141.184 14.2585 141.721 15.2031H141.9V7.63636H144.873V28H141.969V25.6236H141.721C141.184 26.598 140.09 28.2983 137.306 28.2983ZM137.962 25.7628C140.527 25.7628 141.949 23.5753 141.949 20.3636C141.949 17.1719 140.557 15.054 137.962 15.054C135.277 15.054 133.925 17.331 133.925 20.3636C133.925 23.4261 135.307 25.7628 137.962 25.7628Z" fill="#313663"/>
</svg>
