<svg width="24" height="24" viewBox="0 0 24 24" fill="none" xmlns="http://www.w3.org/2000/svg">
<path d="M13.5 5C14.3285 5 15 4.32843 15 3.5C15 2.67157 14.3285 2 13.5 2C12.6716 2 12 2.67157 12 3.5C12 4.32843 12.6716 5 13.5 5Z" fill="#313663"/>
<path d="M12.8414 12.1181C12.7091 12.0023 12.6473 11.8254 12.6787 11.6523L13.3248 8.09916C13.5967 6.60357 12.1667 5.36332 10.7246 5.84402L8.67386 6.5276C8.28793 6.65624 7.9504 6.89951 7.70632 7.22496L5.10003 10.7C4.93434 10.9209 4.97912 11.2343 5.20003 11.4L6.80778 12.6058C7.02565 12.7692 7.33421 12.7282 7.50184 12.5136L10.0711 9.22414L9.57495 11.9527C9.4491 12.6449 9.6962 13.3523 10.2257 13.8156L13.7058 16.8607L15.4189 22C15.5062 22.262 15.7894 22.4036 16.0513 22.3162L17.9487 21.6838C18.2107 21.5965 18.3523 21.3133 18.2649 21.0513L16.3801 15.3969C16.3239 15.2282 16.2237 15.0776 16.0899 14.9605L12.8414 12.1181Z" fill="#313663"/>
<path d="M6.10558 21.5527C5.85859 21.4292 5.75848 21.1289 5.88197 20.8819L8.43476 15.7763C8.55825 15.5293 8.85859 15.4292 9.10558 15.5527L10.8944 16.4471C11.1414 16.5706 11.2415 16.871 11.118 17.118L8.56526 22.2235C8.44176 22.4705 8.14142 22.5706 7.89443 22.4471L6.10558 21.5527Z" fill="#313663"/>
<path d="M14.4 9.7998C14.2343 10.0207 14.2791 10.3341 14.5 10.4998L17.7 12.8998C17.9209 13.0655 18.2343 13.0207 18.4 12.7998L19.6 11.1998C19.7657 10.9789 19.7209 10.6655 19.5 10.4998L16.3 8.0998C16.0791 7.93412 15.7657 7.97889 15.6 8.1998L14.4 9.7998Z" fill="#313663"/>
</svg>
